#Comment line ignore any data following # character 
#Hierarchical Translation and Rotation (.htr) file 
[Header]	
#Header keywords are followed by a single value 
FileType HTR		#Single word string
DataType HTRS		#Translation followed by rotation and scale data
FileVersion 1		#integer
NumSegments 84		#integer
NumFrames 2		#integer
DataFrameRate 30		#integer, data frame rate in this file
EulerRotationOrder ZYX
CalibrationUnits mm
RotationUnits Degrees
GlobalAxisofGravity Y
BoneLengthAxis Y
ScaleFactor 1.00
[SegmentNames&Hierarchy]
#CHILD	PARENT
MASTER GLOBAL
root MASTER
chest root
L_mid_tent01 root
R_mid_tent01 root
spine01 root
Bip01_Neck chest
L_humerus chest
R_humerus chest
weapon_bone chest
Bip01_Head Bip01_Neck
eye_left_bone Bip01_Head
eye_right_bone Bip01_Head
L_forearm L_humerus
L_front_hand L_forearm
L_weapon_bone L_forearm
L_front_hand01_01 L_front_hand
L_front_hand02_01 L_front_hand
L_front_hand03_01 L_front_hand
L_front_hand01_02 L_front_hand01_01
L_front_hand02_02 L_front_hand02_01
L_front_hand03_02 L_front_hand03_01
R_forearm R_humerus
R_front_hand R_forearm
R_weapon_bone R_forearm
R_front_hand01_01 R_front_hand
R_front_hand02_01 R_front_hand
R_front_hand03_01 R_front_hand
R_front_hand01_02 R_front_hand01_01
R_front_hand02_02 R_front_hand02_01
R_front_hand03_02 R_front_hand03_01
null_rope01_connect L_mid_tent01
Rope1_Seg01 null_rope01_connect
Rope1_Seg02 Rope1_Seg01
Rope1_Seg03 Rope1_Seg02
Rope1_Seg04 Rope1_Seg03
Rope1_Seg05 Rope1_Seg04
Rope1_Seg06 Rope1_Seg05
Rope1_Seg07 Rope1_Seg06
Rope1_Seg09 Rope1_Seg07
L_mid_hand01 Rope1_Seg09
L_mid_hand02 Rope1_Seg09
L_mid_hand03 Rope1_Seg09
null_rope02_connect R_mid_tent01
Rope2_Seg01 null_rope02_connect
Rope2_Seg02 Rope2_Seg01
Rope2_Seg03 Rope2_Seg02
Rope2_Seg04 Rope2_Seg03
Rope2_Seg05 Rope2_Seg04
Rope2_Seg06 Rope2_Seg05
Rope2_Seg07 Rope2_Seg06
Rope2_Seg09 Rope2_Seg07
R_mid_hand01 Rope2_Seg09
R_mid_hand02 Rope2_Seg09
R_mid_hand03 Rope2_Seg09
spine02 spine01
spine03 spine02
pelvis spine03
null_rope03_connect pelvis
null_rope04_connect pelvis
Rope3_Seg01 null_rope03_connect
Rope3_Seg02 Rope3_Seg01
Rope3_Seg03 Rope3_Seg02
Rope3_Seg04 Rope3_Seg03
Rope3_Seg05 Rope3_Seg04
Rope3_Seg06 Rope3_Seg05
Rope3_Seg07 Rope3_Seg06
Rope3_Seg08 Rope3_Seg07
Rope3_Seg09 Rope3_Seg08
R_rear_hand01 Rope3_Seg09
R_rear_hand02 Rope3_Seg09
R_rear_hand03 Rope3_Seg09
Rope4_Seg01 null_rope04_connect
Rope4_Seg02 Rope4_Seg01
Rope4_Seg03 Rope4_Seg02
Rope4_Seg04 Rope4_Seg03
Rope4_Seg05 Rope4_Seg04
Rope4_Seg06 Rope4_Seg05
Rope4_Seg07 Rope4_Seg06
Rope4_Seg08 Rope4_Seg07
Rope4_Seg09 Rope4_Seg08
L_rear_hand01 Rope4_Seg09
L_rear_hand02 Rope4_Seg09
L_rear_hand03 Rope4_Seg09
[BasePosition]
#SegmentName Tx, Ty, Tz, Rx, Ry, Rz, BoneLength
MASTER 0.000000 0.000000 0.000000 -90.000000 0.000000 0.000000 10.000000 
root 0.000000 0.000000 0.000000 0.000000 0.000000 0.000000 10.000000 
chest 0.000000 0.000000 0.000000 0.000000 0.000000 0.000000 10.000000 
L_mid_tent01 0.000000 0.000000 0.000000 0.000000 0.000000 0.000000 10.000000 
R_mid_tent01 0.000000 0.000000 0.000000 0.000000 0.000000 0.000000 10.000000 
spine01 0.000000 0.000000 0.000000 0.000000 0.000000 0.000000 10.000000 
Bip01_Neck 0.000000 0.000000 0.000000 0.000000 0.000000 0.000000 10.000000 
L_humerus 0.000000 0.000000 0.000000 0.000000 0.000000 0.000000 10.000000 
R_humerus 0.000000 0.000000 0.000000 0.000000 0.000000 0.000000 10.000000 
weapon_bone 0.000000 0.000000 0.000000 0.000000 0.000000 0.000000 10.000000 
Bip01_Head 0.000000 0.000000 0.000000 0.000000 0.000000 0.000000 10.000000 
eye_left_bone 0.000000 0.000000 0.000000 0.000000 0.000000 0.000000 10.000000 
eye_right_bone 0.000000 0.000000 0.000000 0.000000 0.000000 0.000000 10.000000 
L_forearm 0.000000 0.000000 0.000000 0.000000 0.000000 0.000000 10.000000 
L_front_hand 0.000000 0.000000 0.000000 0.000000 0.000000 0.000000 10.000000 
L_weapon_bone 0.000000 0.000000 0.000000 0.000000 0.000000 0.000000 10.000000 
L_front_hand01_01 0.000000 0.000000 0.000000 0.000000 0.000000 0.000000 10.000000 
L_front_hand02_01 0.000000 0.000000 0.000000 0.000000 0.000000 0.000000 10.000000 
L_front_hand03_01 0.000000 0.000000 0.000000 0.000000 0.000000 0.000000 10.000000 
L_front_hand01_02 0.000000 0.000000 0.000000 0.000000 0.000000 0.000000 10.000000 
L_front_hand02_02 0.000000 0.000000 0.000000 0.000000 0.000000 0.000000 10.000000 
L_front_hand03_02 0.000000 0.000000 0.000000 0.000000 0.000000 0.000000 10.000000 
R_forearm 0.000000 0.000000 0.000000 0.000000 0.000000 0.000000 10.000000 
R_front_hand 0.000000 0.000000 0.000000 0.000000 0.000000 0.000000 10.000000 
R_weapon_bone 0.000000 0.000000 0.000000 0.000000 0.000000 0.000000 10.000000 
R_front_hand01_01 0.000000 0.000000 0.000000 0.000000 0.000000 0.000000 10.000000 
R_front_hand02_01 0.000000 0.000000 0.000000 0.000000 0.000000 0.000000 10.000000 
R_front_hand03_01 0.000000 0.000000 0.000000 0.000000 0.000000 0.000000 10.000000 
R_front_hand01_02 0.000000 0.000000 0.000000 0.000000 0.000000 0.000000 10.000000 
R_front_hand02_02 0.000000 0.000000 0.000000 0.000000 0.000000 0.000000 10.000000 
R_front_hand03_02 0.000000 0.000000 0.000000 0.000000 0.000000 0.000000 10.000000 
null_rope01_connect 0.000000 0.000000 0.000000 0.000000 0.000000 0.000000 10.000000 
Rope1_Seg01 0.000000 0.000000 0.000000 0.000000 0.000000 0.000000 10.000000 
Rope1_Seg02 0.000000 0.000000 0.000000 0.000000 0.000000 0.000000 10.000000 
Rope1_Seg03 0.000000 0.000000 0.000000 0.000000 0.000000 0.000000 10.000000 
Rope1_Seg04 0.000000 0.000000 0.000000 0.000000 0.000000 0.000000 10.000000 
Rope1_Seg05 0.000000 0.000000 0.000000 0.000000 0.000000 0.000000 10.000000 
Rope1_Seg06 0.000000 0.000000 0.000000 0.000000 0.000000 0.000000 10.000000 
Rope1_Seg07 0.000000 0.000000 0.000000 0.000000 0.000000 0.000000 10.000000 
Rope1_Seg09 0.000000 0.000000 0.000000 0.000000 0.000000 0.000000 10.000000 
L_mid_hand01 0.000000 0.000000 0.000000 0.000000 0.000000 0.000000 10.000000 
L_mid_hand02 0.000000 0.000000 0.000000 0.000000 0.000000 0.000000 10.000000 
L_mid_hand03 0.000000 0.000000 0.000000 0.000000 0.000000 0.000000 10.000000 
null_rope02_connect 0.000000 0.000000 0.000000 0.000000 0.000000 0.000000 10.000000 
Rope2_Seg01 0.000000 0.000000 0.000000 0.000000 0.000000 0.000000 10.000000 
Rope2_Seg02 0.000000 0.000000 0.000000 0.000000 0.000000 0.000000 10.000000 
Rope2_Seg03 0.000000 0.000000 0.000000 0.000000 0.000000 0.000000 10.000000 
Rope2_Seg04 0.000000 0.000000 0.000000 0.000000 0.000000 0.000000 10.000000 
Rope2_Seg05 0.000000 0.000000 0.000000 0.000000 0.000000 0.000000 10.000000 
Rope2_Seg06 0.000000 0.000000 0.000000 0.000000 0.000000 0.000000 10.000000 
Rope2_Seg07 0.000000 0.000000 0.000000 0.000000 0.000000 0.000000 10.000000 
Rope2_Seg09 0.000000 0.000000 0.000000 0.000000 0.000000 0.000000 10.000000 
R_mid_hand01 0.000000 0.000000 0.000000 0.000000 0.000000 0.000000 10.000000 
R_mid_hand02 0.000000 0.000000 0.000000 0.000000 0.000000 0.000000 10.000000 
R_mid_hand03 0.000000 0.000000 0.000000 0.000000 0.000000 0.000000 10.000000 
spine02 0.000000 0.000000 0.000000 0.000000 0.000000 0.000000 10.000000 
spine03 0.000000 0.000000 0.000000 0.000000 0.000000 0.000000 10.000000 
pelvis 0.000000 0.000000 0.000000 0.000000 0.000000 0.000000 10.000000 
null_rope03_connect 0.000000 0.000000 0.000000 0.000000 0.000000 0.000000 10.000000 
null_rope04_connect 0.000000 0.000000 0.000000 0.000000 0.000000 0.000000 10.000000 
Rope3_Seg01 0.000000 0.000000 0.000000 0.000000 0.000000 0.000000 10.000000 
Rope3_Seg02 0.000000 0.000000 0.000000 0.000000 0.000000 0.000000 10.000000 
Rope3_Seg03 0.000000 0.000000 0.000000 0.000000 0.000000 0.000000 10.000000 
Rope3_Seg04 0.000000 0.000000 0.000000 0.000000 0.000000 0.000000 10.000000 
Rope3_Seg05 0.000000 0.000000 0.000000 0.000000 0.000000 0.000000 10.000000 
Rope3_Seg06 0.000000 0.000000 0.000000 0.000000 0.000000 0.000000 10.000000 
Rope3_Seg07 0.000000 0.000000 0.000000 0.000000 0.000000 0.000000 10.000000 
Rope3_Seg08 0.000000 0.000000 0.000000 0.000000 0.000000 0.000000 10.000000 
Rope3_Seg09 0.000000 0.000000 0.000000 0.000000 0.000000 0.000000 10.000000 
R_rear_hand01 0.000000 0.000000 0.000000 0.000000 0.000000 0.000000 10.000000 
R_rear_hand02 0.000000 0.000000 0.000000 0.000000 0.000000 0.000000 10.000000 
R_rear_hand03 0.000000 0.000000 0.000000 0.000000 0.000000 0.000000 10.000000 
Rope4_Seg01 0.000000 0.000000 0.000000 0.000000 0.000000 0.000000 10.000000 
Rope4_Seg02 0.000000 0.000000 0.000000 0.000000 0.000000 0.000000 10.000000 
Rope4_Seg03 0.000000 0.000000 0.000000 0.000000 0.000000 0.000000 10.000000 
Rope4_Seg04 0.000000 0.000000 0.000000 0.000000 0.000000 0.000000 10.000000 
Rope4_Seg05 0.000000 0.000000 0.000000 0.000000 0.000000 0.000000 10.000000 
Rope4_Seg06 0.000000 0.000000 0.000000 0.000000 0.000000 0.000000 10.000000 
Rope4_Seg07 0.000000 0.000000 0.000000 0.000000 0.000000 0.000000 10.000000 
Rope4_Seg08 0.000000 0.000000 0.000000 0.000000 0.000000 0.000000 10.000000 
Rope4_Seg09 0.000000 0.000000 0.000000 0.000000 0.000000 0.000000 10.000000 
L_rear_hand01 0.000000 0.000000 0.000000 0.000000 0.000000 0.000000 10.000000 
L_rear_hand02 0.000000 0.000000 0.000000 0.000000 0.000000 0.000000 10.000000 
L_rear_hand03 0.000000 0.000000 0.000000 0.000000 0.000000 0.000000 10.000000 
#Beginning of Data. Separated by tabs
#Fr	Tx	Ty	Tz	Rx	Ry	Rz	SF
[MASTER]
136 0.000000 0.000000 0.000000 0.000000 -0.002347 -89.999992 0.000000
137 0.000000 0.000000 0.000000 0.000000 -0.002347 -90.000000 0.000000
[root]
136 -14.348907 -9.064022 472.594574 -88.582230 -10.448836 179.361130 472.899231
137 -14.348907 -11.987881 472.594574 -88.582237 -10.448837 179.361130 472.964294
[chest]
136 -84.512650 -34.090519 0.000000 2.625201 -2.135430 -179.288635 91.129311
137 -84.512650 -34.090519 0.000000 2.887358 -2.206033 -179.305145 91.129311
[L_mid_tent01]
136 27.299511 22.177458 -249.918259 -63.657536 18.686338 33.262241 252.381134
137 27.299511 22.177458 -249.918259 -63.657536 18.686338 33.262241 252.381134
[R_mid_tent01]
136 23.228794 24.509907 226.238495 -131.259216 -15.836094 39.582561 228.744751
137 23.228794 24.509907 226.238495 -131.259216 -15.836094 39.582561 228.744751
[spine01]
136 -0.361383 -0.195265 0.000000 0.001845 0.001451 13.654368 0.410763
137 -0.361383 -0.195265 0.000000 0.001845 0.001451 13.654368 0.410763
[Bip01_Neck]
136 165.484543 71.581718 0.000119 176.643677 -1.657967 43.431911 180.302734
137 165.484543 71.581718 0.000119 176.643677 -1.657967 43.431911 180.302734
[L_humerus]
136 -13.983130 -135.272980 -120.471481 128.764587 57.495228 -149.275131 181.680161
137 -13.983130 -135.272980 -120.471481 128.764587 57.495228 -149.275131 181.680161
[R_humerus]
136 -13.983309 -135.273102 125.287651 -128.068832 -39.104877 -153.182327 184.909012
137 -13.983309 -135.273102 125.287651 -128.068832 -39.104877 -153.182327 184.909012
[weapon_bone]
136 235.964890 -300.705902 0.000000 0.000000 -89.951546 -128.212341 382.234833
137 235.964890 -300.705902 0.000000 0.000000 -89.951546 -128.212341 382.234833
[Bip01_Head]
136 128.171936 128.412277 8.333420 1.938589 3.724703 -19.795940 181.623810
137 128.171936 128.412277 8.333420 1.938589 3.724703 -19.795940 181.623810
[eye_left_bone]
136 -24.626970 125.451866 -64.772606 0.000000 -90.000000 -99.840431 143.318359
137 -24.626970 125.451866 -64.772606 0.000000 -90.000000 -99.840431 143.318359
[eye_right_bone]
136 -24.626970 125.451866 64.327362 0.000000 -89.965736 80.156380 143.117676
137 -24.626970 125.451866 64.327362 0.000000 -89.965736 80.156380 143.117676
[L_forearm]
136 322.776093 0.000000 -0.000119 0.000719 -0.002234 -125.690590 322.776093
137 322.776093 0.000000 -0.000119 0.000719 -0.002234 -125.690590 322.776093
[L_front_hand]
136 241.149185 -0.042021 -3.300071 -146.311249 -1.835018 -27.424923 241.171753
137 241.149185 -0.042021 -3.300071 -146.311249 -1.835018 -27.424923 241.171753
[L_weapon_bone]
136 156.183838 0.000000 0.000000 0.000014 0.000007 0.000001 156.183838
137 156.183838 0.000000 0.000000 0.000014 0.000007 0.000001 156.183838
[L_front_hand01_01]
136 86.095154 20.947098 -0.655860 -0.366594 -0.477154 75.385582 88.609184
137 86.095154 20.947098 -0.655860 -0.366594 -0.477154 75.385574 88.609184
[L_front_hand02_01]
136 86.935165 -11.437475 24.513514 154.399796 -59.883835 -61.369587 91.046425
137 86.935165 -11.437475 24.513514 154.399796 -59.883835 -61.369587 91.046425
[L_front_hand03_01]
136 86.637497 -14.123976 -20.424902 -153.913849 58.118122 -62.702866 90.126129
137 86.637497 -14.123976 -20.424902 -153.913849 58.118122 -62.702866 90.126129
[L_front_hand01_02]
136 71.020905 -0.000179 0.000030 0.000334 -0.002323 -106.379684 71.020905
137 71.020905 -0.000179 0.000030 0.000334 -0.002323 -106.379684 71.020905
[L_front_hand02_02]
136 71.020927 -0.000119 0.000060 0.000334 -0.002323 -106.379684 71.020927
137 71.020927 -0.000119 0.000060 0.000334 -0.002323 -106.379684 71.020927
[L_front_hand03_02]
136 71.020905 -0.000060 0.000060 0.000334 -0.002323 -106.379684 71.020905
137 71.020905 -0.000060 0.000060 0.000334 -0.002323 -106.379684 71.020905
[R_forearm]
136 322.776428 -0.000060 0.000030 0.183110 0.110930 -121.475273 322.776428
137 322.776428 -0.000060 0.000030 0.183110 0.110930 -121.475273 322.776428
[R_front_hand]
136 238.847015 -0.006795 2.210259 144.522858 -10.645197 -26.316439 238.857239
137 238.847015 -0.006795 2.210259 144.522858 -10.645195 -26.316439 238.857239
[R_weapon_bone]
136 155.664093 0.002503 -0.000030 0.003487 0.001180 -90.988930 155.664078
137 155.664093 0.002503 -0.000030 0.003487 0.001180 -90.988930 155.664078
[R_front_hand01_01]
136 87.624611 14.231146 22.918642 -154.633499 -59.950619 61.746044 91.683487
137 87.624611 14.231146 22.918642 -154.633514 -59.950634 61.746063 91.683487
[R_front_hand02_01]
136 89.356956 14.367283 -19.491137 154.602661 58.302849 63.744389 92.579636
137 89.356956 14.367283 -19.491137 154.602661 58.302849 63.744389 92.579636
[R_front_hand03_01]
136 87.286232 -22.307278 -0.143439 0.162155 -0.423168 -75.767921 90.091743
137 87.286232 -22.307278 -0.143439 0.162155 -0.423168 -75.767921 90.091743
[R_front_hand01_02]
136 71.020905 0.000060 0.000119 0.002323 -0.000334 106.381714 71.020905
137 71.020905 0.000060 0.000119 0.002323 -0.000334 106.381721 71.020905
[R_front_hand02_02]
136 71.020844 -0.000030 -0.000119 0.002323 -0.000334 106.381714 71.020836
137 71.020844 -0.000030 -0.000119 0.002323 -0.000334 106.381721 71.020836
[R_front_hand03_02]
136 71.020905 0.000000 0.000030 0.002323 -0.000334 106.381714 71.020905
137 71.020905 0.000000 0.000030 0.002323 -0.000334 106.381721 71.020905
[null_rope01_connect]
136 328.732483 0.000000 -0.000238 -166.231216 26.298841 69.278107 328.732483
137 328.732483 0.000000 -0.000238 -166.231216 26.298847 69.278114 328.732483
[Rope1_Seg01]
136 0.000000 0.000000 0.000000 132.052185 -35.251892 -58.644257 0.000000
137 0.000000 0.000000 0.000000 130.131958 -33.874229 -56.743290 0.000000
[Rope1_Seg02]
136 139.999863 -0.000179 0.000000 -4.233419 -4.902232 -3.240469 139.999863
137 139.999863 -0.000179 0.000000 -3.859771 -4.909970 -2.928811 139.999863
[Rope1_Seg03]
136 139.999924 0.000060 -0.000060 -7.089931 -7.793891 -6.079214 139.999924
137 139.999924 0.000060 -0.000060 -6.590693 -7.880057 -5.515212 139.999924
[Rope1_Seg04]
136 139.999924 -0.000060 -0.000119 -12.250582 -13.902806 -13.862052 139.999924
137 139.999924 -0.000060 -0.000119 -12.101238 -14.568179 -12.650012 139.999924
[Rope1_Seg05]
136 139.999832 0.000119 -0.000060 -11.138325 -14.731613 -24.553337 139.999832
137 139.999832 0.000119 -0.000060 -12.210485 -16.742353 -23.859676 139.999832
[Rope1_Seg06]
136 139.999954 0.000119 -0.000060 -3.886653 -4.949220 -29.201012 139.999954
137 139.999954 0.000119 -0.000060 -4.638254 -5.011191 -30.148220 139.999954
[Rope1_Seg07]
136 139.999985 0.000060 0.000000 3.279757 -1.436081 -29.737722 139.999985
137 139.999985 0.000060 0.000000 2.693926 -0.652544 -29.833981 139.999985
[Rope1_Seg09]
136 121.602913 0.000119 -0.000089 -89.793175 -1.359789 0.847147 121.602913
137 121.602913 0.000119 -0.000089 -89.793175 -1.359789 0.847147 121.602913
[L_mid_hand01]
136 103.859421 1.038730 8.195221 109.056198 -40.604698 -13.201399 104.187431
137 103.859421 1.038730 8.195221 109.056198 -40.604698 -13.201401 104.187431
[L_mid_hand02]
136 105.572853 -4.139662 -10.864139 -146.713593 31.476528 -37.902313 106.211075
137 105.572853 -4.139662 -10.864139 -146.713593 31.476528 -37.902313 106.211075
[L_mid_hand03]
136 104.641464 17.579376 -3.913581 -14.267233 12.322316 43.898396 106.179977
137 104.641464 17.579376 -3.913581 -14.267233 12.322316 43.898396 106.179977
[null_rope02_connect]
136 328.732849 0.000179 -0.000119 -164.342651 -37.938038 110.680077 328.732849
137 328.732849 0.000179 -0.000119 -164.342651 -37.938038 110.680077 328.732849
[Rope2_Seg01]
136 -0.000038 -0.000114 0.000112 -60.244572 -43.590679 -119.778259 0.000165
137 -0.000038 -0.000114 0.000112 -60.303425 -44.832142 -120.423820 0.000165
[Rope2_Seg02]
136 139.999741 -0.000060 -0.000119 2.291167 0.128690 5.779449 139.999756
137 139.999741 -0.000060 -0.000119 2.148488 0.056078 5.545002 139.999756
[Rope2_Seg03]
136 140.000107 0.000030 0.000000 5.382695 0.706949 11.421671 140.000107
137 140.000107 0.000030 0.000000 5.016389 0.521141 10.927019 140.000107
[Rope2_Seg04]
136 139.999802 0.000000 -0.000060 20.597017 4.007874 32.793510 139.999802
137 139.999802 0.000000 -0.000060 19.541557 3.425561 31.646706 139.999802
[Rope2_Seg05]
136 139.999985 -0.000060 0.000119 31.317501 18.073111 43.863930 139.999985
137 139.999985 -0.000060 0.000119 33.815376 17.498755 47.294014 139.999985
[Rope2_Seg06]
136 139.999893 -0.000030 -0.000119 3.628426 13.129699 6.035007 139.999893
137 139.999893 -0.000030 -0.000119 4.051607 13.006555 6.992136 139.999893
[Rope2_Seg07]
136 139.999893 0.000060 -0.000060 -0.553082 16.354111 -4.345817 139.999893
137 139.999893 0.000060 -0.000060 -0.337641 13.406491 -3.818285 139.999893
[Rope2_Seg09]
136 121.338966 0.000089 -0.000060 33.793236 -1.359788 -0.847141 121.338966
137 121.338966 0.000089 -0.000060 33.793236 -1.359788 -0.847141 121.338966
[R_mid_hand01]
136 104.680779 11.144459 -10.335981 -37.204079 31.906813 37.576260 105.778534
137 104.680779 11.144459 -10.335981 -37.204079 31.906813 37.576260 105.778534
[R_mid_hand02]
136 104.070427 2.443552 8.231699 70.367462 -42.427391 14.067809 104.424065
137 104.070427 2.443552 8.231699 70.367470 -42.427391 14.067804 104.424065
[R_mid_hand03]
136 106.028137 -11.221827 -5.996406 -169.893616 12.226661 -47.211018 106.788818
137 106.028137 -11.221827 -5.996406 -169.893616 12.226661 -47.211018 106.788818
[spine02]
136 129.756927 0.001550 0.000119 -1.023899 -3.926965 6.770993 129.756927
137 129.756927 0.001550 0.000119 -1.023899 -3.926965 6.770993 129.756927
[spine03]
136 78.613846 0.087372 -4.898873 1.040681 4.146420 4.212376 78.766380
137 78.613846 0.087372 -4.898873 1.040681 4.146420 4.212376 78.766380
[pelvis]
136 169.435242 0.051022 0.000000 0.019518 -0.190233 -10.721436 169.435257
137 169.435242 0.051022 0.000000 0.019518 -0.190233 -10.721436 169.435257
[null_rope03_connect]
136 -1.257226 -2.466202 137.391083 21.146282 88.832657 -72.228729 137.418976
137 -1.257226 -2.466202 137.391083 21.146282 88.832657 -72.228729 137.418976
[null_rope04_connect]
136 -1.259640 -2.480268 -137.844437 21.146282 88.832657 -72.228729 137.872513
137 -1.259640 -2.480268 -137.844437 21.146282 88.832657 -72.228729 137.872513
[Rope3_Seg01]
136 0.000000 0.000000 0.000000 -148.672485 -47.797031 120.038063 0.000000
137 0.000000 0.000000 0.000000 -145.761826 -47.101284 116.487686 0.000000
[Rope3_Seg02]
136 139.999924 -0.000119 0.000060 5.056106 -11.007956 4.693227 139.999924
137 139.999924 -0.000119 0.000060 4.832486 -11.973999 5.021397 139.999924
[Rope3_Seg03]
136 139.999924 -0.000119 0.000119 7.986385 -17.078796 9.534148 139.999924
137 139.999924 -0.000119 0.000119 7.498628 -18.187605 10.015305 139.999924
[Rope3_Seg04]
136 139.999924 0.000119 0.000000 7.545139 -18.008150 15.650187 139.999924
137 139.999924 0.000119 0.000000 6.604932 -17.313627 14.672508 139.999924
[Rope3_Seg05]
136 139.999924 -0.000238 0.000060 4.337476 -11.804160 13.013042 139.999924
137 139.999924 -0.000238 0.000060 4.126786 -12.305417 12.290422 139.999924
[Rope3_Seg06]
136 139.999893 -0.000119 -0.000060 2.721555 -16.762602 19.466845 139.999893
137 139.999893 -0.000119 -0.000060 2.641470 -19.041143 20.384399 139.999893
[Rope3_Seg07]
136 139.999771 0.000060 -0.000119 -1.489099 -16.551476 23.463772 139.999771
137 139.999771 0.000060 -0.000119 -0.761589 -16.036396 21.225595 139.999771
[Rope3_Seg08]
136 139.999985 -0.000060 0.000000 -1.102736 -7.315683 11.011788 139.999985
137 139.999985 -0.000060 0.000000 -0.518358 -6.897598 9.760731 139.999985
[Rope3_Seg09]
136 90.185997 -0.000179 -0.000060 89.793228 -1.359877 -0.847183 90.185997
137 90.185997 -0.000179 -0.000060 89.793228 -1.359877 -0.847183 90.185997
[R_rear_hand01]
136 103.366196 -6.073594 -10.757982 -164.755127 19.627697 -40.352161 104.101845
137 103.366196 -6.073594 -10.757982 -164.755127 19.627697 -40.352161 104.101845
[R_rear_hand02]
136 100.509819 12.039542 -7.992327 -30.792652 24.782448 38.141541 101.543350
137 100.509819 12.039542 -7.992327 -30.792652 24.782448 38.141541 101.543350
[R_rear_hand03]
136 101.539970 5.215704 5.435467 82.448349 -41.048256 8.840378 101.819031
137 101.539970 5.215704 5.435467 82.448349 -41.048256 8.840378 101.819031
[Rope4_Seg01]
136 0.000010 0.000038 -0.000114 61.164986 -42.715206 65.384666 0.000121
137 0.000010 0.000038 -0.000114 61.165009 -42.715206 65.384659 0.000121
[Rope4_Seg02]
136 139.999985 0.000060 0.000119 -4.962850 4.744947 -11.563672 139.999985
137 139.999985 0.000060 0.000119 -4.962852 4.744949 -11.563678 139.999985
[Rope4_Seg03]
136 139.999924 0.000000 -0.000238 -8.138309 8.875057 -17.769257 139.999924
137 139.999924 0.000000 -0.000238 -8.136320 8.873385 -17.766068 139.999924
[Rope4_Seg04]
136 139.999985 0.000000 0.000119 -7.859359 13.246659 -18.124292 139.999985
137 139.999985 0.000000 0.000119 -7.785963 13.169633 -17.964527 139.999985
[Rope4_Seg05]
136 139.999802 -0.000060 -0.000119 -3.898437 10.034356 -13.278867 139.999802
137 139.999802 -0.000060 -0.000119 -3.943611 10.094025 -13.393184 139.999802
[Rope4_Seg06]
136 139.999924 0.000000 0.000060 -6.563097 16.321951 -26.750242 139.999924
137 139.999924 0.000000 0.000060 -6.618569 16.403385 -26.910215 139.999924
[Rope4_Seg07]
136 139.999802 0.000000 0.000000 -4.079591 18.920734 -28.292292 139.999802
137 139.999802 0.000000 0.000000 -3.906996 18.544636 -27.640285 139.999802
[Rope4_Seg08]
136 139.999924 0.000000 0.000119 -0.897054 7.951271 -11.034097 139.999924
137 139.999924 0.000000 0.000119 -0.923340 7.759933 -10.744320 139.999924
[Rope4_Seg09]
136 90.185791 0.000060 0.000060 -135.617828 2.228885 0.850567 90.185791
137 90.185791 0.000060 0.000060 -135.617828 2.228885 0.850567 90.185791
[L_rear_hand01]
136 101.696655 -8.392275 -7.654577 -31.684452 -23.583008 144.025742 102.329041
137 101.696655 -8.392275 -7.654577 -31.684452 -23.583008 144.025742 102.329041
[L_rear_hand02]
136 102.726799 -1.568258 5.773216 82.701553 38.753956 171.553619 102.900848
137 102.726799 -1.568258 5.773216 82.701553 38.753956 171.553619 102.900848
[L_rear_hand03]
136 104.552910 9.721220 -10.420293 -163.975403 -19.004421 -142.009338 105.519653
137 104.552910 9.721220 -10.420293 -163.975403 -19.004421 -142.009338 105.519653
